<svg data-v-423bf9ae="" xmlns="http://www.w3.org/2000/svg" viewBox="0 0 445 90" class="iconLeft"><!----><!----><!----><g data-v-423bf9ae="" id="232023b1-4ded-4acd-8aca-5f6fbb503739" fill="#000000" transform="matrix(4.838709826275912,0,0,4.838709826275912,217.5434643364162,-3.483871928610988)"><path d="M0.70 16.19C1.90 16.19 2.89 15.65 2.89 13.52L2.89 3.82L1.40 3.82L1.40 13.62C1.40 14.44 1.18 14.86 0.63 14.86C0.36 14.86 0.20 14.82-0.03 14.76L-0.28 16.04C0.07 16.14 0.35 16.19 0.70 16.19ZM8.12 13.34C10.21 13.34 11.65 11.81 11.65 9.84C11.65 7.89 10.21 6.36 8.12 6.36C6.01 6.36 4.56 7.89 4.56 9.84C4.56 11.81 6.01 13.34 8.12 13.34ZM8.12 12.13C6.90 12.13 6.04 11.14 6.04 9.84C6.04 8.56 6.90 7.57 8.12 7.57C9.33 7.57 10.19 8.56 10.19 9.84C10.19 11.14 9.33 12.13 8.12 12.13ZM17.49 6.53L17.49 10.57C17.37 11.74 16.58 12.12 15.84 12.12C14.82 12.12 14.38 11.39 14.38 10.31L14.38 6.53L12.96 6.53L12.96 10.63C12.96 12.69 14.29 13.33 15.44 13.33C16.38 13.33 17.09 12.95 17.49 12.37L17.66 13.15L18.90 13.15L18.90 6.53ZM23.74 6.36C22.95 6.36 22.43 6.74 22.05 7.41L21.88 6.53L20.65 6.53L20.65 13.15L22.06 13.15L22.06 9.70C22.06 8.62 22.63 7.66 23.67 7.66C23.90 7.66 24.12 7.70 24.31 7.79L24.73 6.58C24.56 6.47 24.18 6.36 23.74 6.36ZM29.08 6.36C28.15 6.36 27.43 6.74 27.04 7.32L26.86 6.53L25.62 6.53L25.62 13.15L27.04 13.15L27.04 9.11C27.15 7.95 27.94 7.57 28.69 7.57C29.71 7.57 30.14 8.30 30.14 9.38L30.14 13.15L31.56 13.15L31.56 9.06C31.56 7 30.23 6.36 29.08 6.36ZM39.54 9.70C39.54 7.73 38.21 6.36 36.28 6.36C34.29 6.36 32.87 7.89 32.87 9.84C32.87 11.80 34.27 13.31 36.44 13.31C37.60 13.31 38.56 12.92 39.16 12.25L38.18 11.46C37.76 11.94 37.19 12.19 36.43 12.19C35.19 12.19 34.46 11.33 34.36 10.15L39.54 10.15ZM36.28 7.50C37.32 7.50 37.99 8.12 38.14 9.17L34.42 9.17C34.62 8.17 35.31 7.50 36.28 7.50ZM45.47 6.53L43.52 11.49L41.55 6.53L40.06 6.53L42.83 13.20L42.39 14.32C42.19 14.82 41.93 15.01 41.62 15.01C41.43 15.01 41.23 14.93 41.14 14.88L40.89 16.06C41.04 16.13 41.34 16.22 41.69 16.22C42.31 16.22 43.05 15.98 43.50 14.86L46.99 6.53Z"></path></g><defs data-v-423bf9ae=""><linearGradient data-v-423bf9ae="" gradientTransform="rotate(25)" id="cc732f48-3815-4e6c-a332-4ea847d703b4" x1="0%" y1="0%" x2="100%" y2="0%"><stop data-v-423bf9ae="" offset="0%" style="stop-color: rgb(1, 100, 139); stop-opacity: 1;"></stop><stop data-v-423bf9ae="" offset="100%" style="stop-color: rgb(91, 208, 164); stop-opacity: 1;"></stop></linearGradient></defs><g data-v-423bf9ae="" id="e9bf4920-c115-404f-9d61-2aa9a7e75ee0" transform="matrix(1.5327236037236547,0,0,1.5327236037236547,0.9056893616861004,-53.79502052004307)" stroke="none" fill="url(#cc732f48-3815-4e6c-a332-4ea847d703b4)"><path d="M58.781 35.281L27.718 66.25 14.749 53.094l-5.688 5.625 15.781 16 2.844 2.844 2.844-2.844 33.906-33.781-5.656-5.656zM3.5 38C1.533 38 0 39.533 0 41.5v49C0 92.467 1.533 94 3.5 94h49c1.967 0 3.5-1.533 3.5-3.5V54.094l-4 4V90H4V42h43.188l4-4H3.5zM68 50v4h60v-4H68zm0 12v4h50v-4H68zm0 12v4h54v-4H68z"></path></g><!----></svg>